<svg width="96" height="19" viewBox="0 0 96 19" fill="none" xmlns="http://www.w3.org/2000/svg">
<path d="M0.262453 14L2.02645 1.4H2.99845L1.36945 13.028H7.32745L7.19245 14H0.262453ZM12.1142 14.234C11.2862 14.234 10.5602 14.021 9.93619 13.595C9.31819 13.169 8.85619 12.599 8.55019 11.885C8.25019 11.165 8.16019 10.37 8.28019 9.5C8.37019 8.84 8.57119 8.225 8.88319 7.655C9.20119 7.079 9.59719 6.575 10.0712 6.143C10.5452 5.705 11.0702 5.363 11.6462 5.117C12.2282 4.871 12.8282 4.748 13.4462 4.748C14.1002 4.748 14.6852 4.877 15.2012 5.135C15.7232 5.387 16.1522 5.744 16.4882 6.206C16.8242 6.668 17.0552 7.214 17.1812 7.844C17.3132 8.468 17.3162 9.152 17.1902 9.896H9.24319C9.21919 10.538 9.33019 11.114 9.57619 11.624C9.82819 12.128 10.1822 12.527 10.6382 12.821C11.1002 13.109 11.6372 13.256 12.2492 13.262C12.9152 13.262 13.5422 13.088 14.1302 12.74C14.7182 12.386 15.2132 11.903 15.6152 11.291L16.5602 11.516C16.0862 12.314 15.4502 12.968 14.6522 13.478C13.8602 13.982 13.0142 14.234 12.1142 14.234ZM9.33319 9.068H16.3352C16.3832 8.45 16.2812 7.883 16.0292 7.367C15.7832 6.845 15.4262 6.428 14.9582 6.116C14.4902 5.804 13.9472 5.648 13.3292 5.648C12.7052 5.648 12.1172 5.801 11.5652 6.107C11.0132 6.413 10.5392 6.827 10.1432 7.349C9.75319 7.865 9.48319 8.438 9.33319 9.068ZM26.6281 5H27.6001L26.2951 14.378C26.2171 14.936 26.0191 15.461 25.7011 15.953C25.3891 16.451 24.9961 16.889 24.5221 17.267C24.0541 17.651 23.5411 17.951 22.9831 18.167C22.4311 18.389 21.8761 18.5 21.3181 18.5C20.6941 18.5 20.1121 18.353 19.5721 18.059C19.0321 17.771 18.5851 17.384 18.2311 16.898C17.8771 16.412 17.6611 15.881 17.5831 15.305L18.5281 14.891C18.5701 15.377 18.7321 15.818 19.0141 16.214C19.2961 16.616 19.6531 16.934 20.0851 17.168C20.5171 17.402 20.9731 17.519 21.4531 17.519C21.8851 17.519 22.3171 17.435 22.7491 17.267C23.1811 17.099 23.5801 16.868 23.9461 16.574C24.3121 16.286 24.6181 15.953 24.8641 15.575C25.1101 15.197 25.2631 14.798 25.3231 14.378L25.6291 12.173C25.2211 12.785 24.7081 13.283 24.0901 13.667C23.4721 14.045 22.7881 14.234 22.0381 14.234C21.4141 14.234 20.8441 14.111 20.3281 13.865C19.8121 13.619 19.3771 13.28 19.0231 12.848C18.6691 12.41 18.4141 11.906 18.2581 11.336C18.1021 10.766 18.0691 10.154 18.1591 9.5C18.2491 8.846 18.4531 8.234 18.7711 7.664C19.0891 7.088 19.4851 6.584 19.9591 6.152C20.4391 5.714 20.9701 5.372 21.5521 5.126C22.1401 4.88 22.7461 4.757 23.3701 4.757C24.1201 4.757 24.7501 4.946 25.2601 5.324C25.7701 5.696 26.1451 6.194 26.3851 6.818L26.6281 5ZM22.1821 13.28C22.8481 13.28 23.4481 13.106 23.9821 12.758C24.5161 12.41 24.9541 11.948 25.2961 11.372C25.6441 10.796 25.8631 10.172 25.9531 9.5C26.0491 8.81 26.0041 8.18 25.8181 7.61C25.6381 7.034 25.3291 6.572 24.8911 6.224C24.4531 5.876 23.9041 5.702 23.2441 5.702C22.5781 5.702 21.9511 5.873 21.3631 6.215C20.7811 6.557 20.2891 7.016 19.8871 7.592C19.4911 8.168 19.2451 8.804 19.1491 9.5C19.0531 10.202 19.1251 10.838 19.3651 11.408C19.6051 11.978 19.9711 12.434 20.4631 12.776C20.9611 13.112 21.5341 13.28 22.1821 13.28ZM37.2872 5H38.2592L36.9992 14H36.0272L36.2612 12.155C35.8652 12.779 35.3552 13.283 34.7312 13.667C34.1132 14.045 33.4082 14.234 32.6162 14.234C31.9622 14.234 31.3652 14.111 30.8252 13.865C30.2852 13.613 29.8262 13.271 29.4482 12.839C29.0762 12.401 28.8062 11.897 28.6382 11.327C28.4762 10.751 28.4432 10.133 28.5392 9.473C28.6292 8.819 28.8332 8.207 29.1512 7.637C29.4752 7.067 29.8832 6.566 30.3752 6.134C30.8732 5.696 31.4222 5.357 32.0222 5.117C32.6282 4.871 33.2552 4.748 33.9032 4.748C34.7012 4.748 35.3672 4.943 35.9012 5.333C36.4352 5.717 36.8192 6.221 37.0532 6.845L37.2872 5ZM32.7332 13.28C33.4292 13.28 34.0472 13.112 34.5872 12.776C35.1332 12.434 35.5772 11.975 35.9192 11.399C36.2612 10.823 36.4832 10.19 36.5852 9.5C36.6872 8.792 36.6422 8.153 36.4502 7.583C36.2642 7.007 35.9462 6.551 35.4962 6.215C35.0522 5.873 34.4882 5.702 33.8042 5.702C33.1142 5.702 32.4602 5.873 31.8422 6.215C31.2242 6.557 30.7052 7.016 30.2852 7.592C29.8712 8.168 29.6162 8.804 29.5202 9.5C29.4242 10.208 29.5052 10.847 29.7632 11.417C30.0272 11.987 30.4202 12.44 30.9422 12.776C31.4642 13.112 32.0612 13.28 32.7332 13.28ZM45.5929 11.885L46.3939 12.353C45.9019 12.923 45.3199 13.379 44.6479 13.721C43.9759 14.063 43.2739 14.234 42.5419 14.234C41.7139 14.234 40.9879 14.021 40.3639 13.595C39.7459 13.169 39.2839 12.599 38.9779 11.885C38.6779 11.165 38.5879 10.37 38.7079 9.5C38.7979 8.84 38.9989 8.225 39.3109 7.655C39.6289 7.079 40.0249 6.575 40.4989 6.143C40.9729 5.705 41.4979 5.363 42.0739 5.117C42.6559 4.871 43.2559 4.748 43.8739 4.748C44.6059 4.748 45.2599 4.919 45.8359 5.261C46.4179 5.603 46.8739 6.062 47.2039 6.638L46.2679 7.097C45.9919 6.653 45.6259 6.314 45.1699 6.08C44.7199 5.84 44.2429 5.72 43.7389 5.72C43.0789 5.72 42.4579 5.894 41.8759 6.242C41.2939 6.584 40.8049 7.043 40.4089 7.619C40.0189 8.189 39.7759 8.816 39.6799 9.5C39.5839 10.19 39.6529 10.82 39.8869 11.39C40.1269 11.96 40.4899 12.416 40.9759 12.758C41.4619 13.094 42.0289 13.262 42.6769 13.262C43.2229 13.262 43.7539 13.133 44.2699 12.875C44.7859 12.617 45.2269 12.287 45.5929 11.885ZM55.0429 5H56.0599L49.2469 18.5H48.2119L50.4889 14L48.5179 5H49.5799L51.1549 12.659L55.0429 5ZM56.3191 14L58.0831 1.4H59.0551L57.4261 13.028H63.3841L63.2491 14H56.3191ZM66.4912 5H67.4632L66.2032 14H65.2312L66.4912 5ZM67.2292 3.299C67.0612 3.299 66.9262 3.245 66.8242 3.137C66.7222 3.023 66.6832 2.882 66.7072 2.714C66.7312 2.546 66.8092 2.408 66.9412 2.3C67.0732 2.186 67.2232 2.129 67.3912 2.129C67.5532 2.129 67.6852 2.186 67.7872 2.3C67.8892 2.408 67.9282 2.546 67.9042 2.714C67.8742 2.882 67.7962 3.023 67.6702 3.137C67.5442 3.245 67.3972 3.299 67.2292 3.299ZM71.6181 2.507L71.2671 5H74.0481L73.9221 5.972H71.1321L70.0071 14H69.0351L70.1601 5.972H68.8551L68.9901 5H70.2951L70.6461 2.507C70.7061 2.099 70.8591 1.727 71.1051 1.391C71.3571 1.055 71.6661 0.788 72.0321 0.589999C72.3981 0.385999 72.7851 0.284 73.1931 0.284C73.4931 0.284 73.7721 0.344 74.0301 0.463999C74.2881 0.578 74.5101 0.746 74.6961 0.967999L73.9131 1.652C73.8171 1.526 73.6941 1.43 73.5441 1.364C73.3941 1.292 73.2321 1.256 73.0581 1.256C72.7101 1.256 72.3951 1.379 72.1131 1.625C71.8371 1.871 71.6721 2.165 71.6181 2.507ZM80.1735 5.972H77.8965L76.7535 14H75.7815L76.9245 5.972H75.2055L75.3315 5H77.0505L77.4375 2.174H78.4095L78.0225 5H80.2995L80.1735 5.972ZM86.6322 1.4H87.9102L90.7362 14H89.7012L89.0532 11.156H82.7532L81.3222 14H80.2872L86.6322 1.4ZM83.2482 10.184H88.8372L87.1182 2.507L83.2482 10.184ZM92.7297 14L94.4937 1.4H95.4657L93.7017 14H92.7297Z" fill="#283D39"/>
</svg>
